<mxfile host="app.diagrams.net" modified="2022-06-25T19:13:50.169Z" agent="5.0 (Macintosh; Intel Mac OS X 10_15_7) AppleWebKit/605.1.15 (KHTML, like Gecko) Version/15.2 Safari/605.1.15" etag="j126urxz9xDba1J8J7ji" version="20.0.3" type="github">
  <diagram id="C5RBs43oDa-KdzZeNtuy" name="Page-1">
    <mxGraphModel dx="1113" dy="702" grid="1" gridSize="10" guides="1" tooltips="1" connect="1" arrows="1" fold="1" page="1" pageScale="1" pageWidth="827" pageHeight="1169" math="0" shadow="0">
      <root>
        <mxCell id="WIyWlLk6GJQsqaUBKTNV-0" />
        <mxCell id="WIyWlLk6GJQsqaUBKTNV-1" parent="WIyWlLk6GJQsqaUBKTNV-0" />
        <mxCell id="_FG8ZskOo05IpsNUSyXY-0" value="&lt;p&gt;&lt;font face=&quot;Courier New&quot; data-font-src=&quot;https://fonts.googleapis.com/css?family=Lato&quot;&gt;Início&lt;/font&gt;&lt;/p&gt;&lt;font face=&quot;Courier New&quot;&gt;&lt;span style=&quot;display: inline;&quot;&gt;&lt;/span&gt;&lt;/font&gt;" style="ellipse;whiteSpace=wrap;html=1;fillColor=#f5f5f5;fontColor=#333333;strokeColor=#666666;" vertex="1" parent="WIyWlLk6GJQsqaUBKTNV-1">
          <mxGeometry x="35" y="32.5" width="120" height="80" as="geometry" />
        </mxCell>
        <mxCell id="_FG8ZskOo05IpsNUSyXY-1" value="" style="shape=flexArrow;endArrow=classic;html=1;rounded=0;fontFamily=Courier New;width=10;endSize=7.33;exitX=0.5;exitY=1;exitDx=0;exitDy=0;fillColor=#dae8fc;strokeColor=#6c8ebf;entryX=0;entryY=0;entryDx=65;entryDy=0;entryPerimeter=0;" edge="1" parent="WIyWlLk6GJQsqaUBKTNV-1" source="_FG8ZskOo05IpsNUSyXY-0" target="_FG8ZskOo05IpsNUSyXY-2">
          <mxGeometry width="50" height="50" relative="1" as="geometry">
            <mxPoint x="70" y="190" as="sourcePoint" />
            <mxPoint x="100" y="170" as="targetPoint" />
          </mxGeometry>
        </mxCell>
        <mxCell id="_FG8ZskOo05IpsNUSyXY-2" value="Informe a&amp;nbsp;&lt;br&gt;Idade" style="shape=display;whiteSpace=wrap;html=1;fontFamily=Courier New;fillColor=#fff2cc;strokeColor=#d6b656;" vertex="1" parent="WIyWlLk6GJQsqaUBKTNV-1">
          <mxGeometry x="30" y="180" width="130" height="65" as="geometry" />
        </mxCell>
        <mxCell id="_FG8ZskOo05IpsNUSyXY-3" value="" style="shape=flexArrow;endArrow=classic;html=1;rounded=0;fontFamily=Courier New;width=10;endSize=7.33;fillColor=#dae8fc;strokeColor=#6c8ebf;exitX=0;exitY=0;exitDx=65;exitDy=65;exitPerimeter=0;entryX=0.5;entryY=0;entryDx=0;entryDy=0;" edge="1" parent="WIyWlLk6GJQsqaUBKTNV-1" source="_FG8ZskOo05IpsNUSyXY-2" target="_FG8ZskOo05IpsNUSyXY-4">
          <mxGeometry width="50" height="50" relative="1" as="geometry">
            <mxPoint x="130" y="260" as="sourcePoint" />
            <mxPoint x="99.5" y="295" as="targetPoint" />
          </mxGeometry>
        </mxCell>
        <mxCell id="_FG8ZskOo05IpsNUSyXY-4" value="Idade" style="shape=manualInput;whiteSpace=wrap;html=1;fontFamily=Courier New;spacingTop=13;fillColor=#dae8fc;strokeColor=#6c8ebf;" vertex="1" parent="WIyWlLk6GJQsqaUBKTNV-1">
          <mxGeometry x="35" y="320" width="120" height="80" as="geometry" />
        </mxCell>
        <mxCell id="_FG8ZskOo05IpsNUSyXY-8" value="" style="shape=flexArrow;endArrow=classic;html=1;rounded=0;fontFamily=Courier New;width=10;endSize=7.33;exitX=0.5;exitY=1;exitDx=0;exitDy=0;fillColor=#dae8fc;strokeColor=#6c8ebf;entryX=0.5;entryY=0;entryDx=0;entryDy=0;" edge="1" parent="WIyWlLk6GJQsqaUBKTNV-1" source="_FG8ZskOo05IpsNUSyXY-4" target="_FG8ZskOo05IpsNUSyXY-11">
          <mxGeometry width="50" height="50" relative="1" as="geometry">
            <mxPoint x="94.5" y="425" as="sourcePoint" />
            <mxPoint x="94.5" y="475" as="targetPoint" />
          </mxGeometry>
        </mxCell>
        <mxCell id="_FG8ZskOo05IpsNUSyXY-10" value="" style="shape=flexArrow;endArrow=classic;html=1;rounded=0;fontFamily=Courier New;width=10;endSize=7.33;exitX=0.5;exitY=1;exitDx=0;exitDy=0;fillColor=#dae8fc;strokeColor=#6c8ebf;entryX=0;entryY=0;entryDx=65;entryDy=0;entryPerimeter=0;" edge="1" parent="WIyWlLk6GJQsqaUBKTNV-1" source="_FG8ZskOo05IpsNUSyXY-11" target="_FG8ZskOo05IpsNUSyXY-14">
          <mxGeometry width="50" height="50" relative="1" as="geometry">
            <mxPoint x="91.25" y="599.41" as="sourcePoint" />
            <mxPoint x="95" y="660" as="targetPoint" />
          </mxGeometry>
        </mxCell>
        <mxCell id="_FG8ZskOo05IpsNUSyXY-11" value="&lt;font style=&quot;font-size: 11px;&quot;&gt;Idade é maior&amp;nbsp;&lt;br&gt;ou igual a 18?&lt;/font&gt;" style="rhombus;whiteSpace=wrap;html=1;fontFamily=Courier New;fillColor=#fff2cc;strokeColor=#d6b656;" vertex="1" parent="WIyWlLk6GJQsqaUBKTNV-1">
          <mxGeometry x="38.75" y="482.5" width="112.5" height="112.5" as="geometry" />
        </mxCell>
        <mxCell id="_FG8ZskOo05IpsNUSyXY-12" value="" style="shape=flexArrow;endArrow=classic;html=1;rounded=0;fontFamily=Courier New;width=10;endSize=7.33;exitX=0;exitY=0;exitDx=65;exitDy=65;fillColor=#dae8fc;strokeColor=#6c8ebf;exitPerimeter=0;entryX=0;entryY=0.5;entryDx=0;entryDy=0;" edge="1" parent="WIyWlLk6GJQsqaUBKTNV-1" source="_FG8ZskOo05IpsNUSyXY-14" target="_FG8ZskOo05IpsNUSyXY-123">
          <mxGeometry width="50" height="50" relative="1" as="geometry">
            <mxPoint x="105.75" y="790.25" as="sourcePoint" />
            <mxPoint x="160" y="790" as="targetPoint" />
            <Array as="points">
              <mxPoint x="95" y="998" />
            </Array>
          </mxGeometry>
        </mxCell>
        <mxCell id="_FG8ZskOo05IpsNUSyXY-14" value="Cadastro não permitido pela idade" style="shape=display;whiteSpace=wrap;html=1;fontFamily=Courier New;fillColor=#f8cecc;strokeColor=#b85450;" vertex="1" parent="WIyWlLk6GJQsqaUBKTNV-1">
          <mxGeometry x="30" y="680" width="130" height="65" as="geometry" />
        </mxCell>
        <mxCell id="_FG8ZskOo05IpsNUSyXY-17" value="Informe a&amp;nbsp;&lt;br&gt;data do evento" style="shape=display;whiteSpace=wrap;html=1;fontFamily=Courier New;fillColor=#d5e8d4;strokeColor=#82b366;" vertex="1" parent="WIyWlLk6GJQsqaUBKTNV-1">
          <mxGeometry x="211.25" y="506.25" width="130" height="65" as="geometry" />
        </mxCell>
        <mxCell id="_FG8ZskOo05IpsNUSyXY-19" value="" style="shape=flexArrow;endArrow=classic;html=1;rounded=0;fontFamily=Courier New;width=10;endSize=7.33;exitX=0;exitY=0;exitDx=65;exitDy=0;fillColor=#dae8fc;strokeColor=#6c8ebf;exitPerimeter=0;entryX=0.5;entryY=1;entryDx=0;entryDy=0;" edge="1" parent="WIyWlLk6GJQsqaUBKTNV-1" source="_FG8ZskOo05IpsNUSyXY-17" target="_FG8ZskOo05IpsNUSyXY-20">
          <mxGeometry width="50" height="50" relative="1" as="geometry">
            <mxPoint x="276" y="290" as="sourcePoint" />
            <mxPoint x="275.75" y="233.75" as="targetPoint" />
          </mxGeometry>
        </mxCell>
        <mxCell id="_FG8ZskOo05IpsNUSyXY-20" value="Data" style="shape=manualInput;whiteSpace=wrap;html=1;fontFamily=Courier New;spacingTop=13;fillColor=#dae8fc;strokeColor=#6c8ebf;" vertex="1" parent="WIyWlLk6GJQsqaUBKTNV-1">
          <mxGeometry x="216.25" y="320" width="120" height="80" as="geometry" />
        </mxCell>
        <mxCell id="_FG8ZskOo05IpsNUSyXY-23" value="" style="shape=flexArrow;endArrow=classic;html=1;rounded=0;fontFamily=Courier New;width=10;endSize=7.33;exitX=0.49;exitY=0.188;exitDx=0;exitDy=0;fillColor=#dae8fc;strokeColor=#6c8ebf;exitPerimeter=0;entryX=0;entryY=0.5;entryDx=0;entryDy=0;" edge="1" parent="WIyWlLk6GJQsqaUBKTNV-1" source="_FG8ZskOo05IpsNUSyXY-20" target="_FG8ZskOo05IpsNUSyXY-25">
          <mxGeometry width="50" height="50" relative="1" as="geometry">
            <mxPoint x="276" y="156.25" as="sourcePoint" />
            <mxPoint x="276.25" y="245" as="targetPoint" />
            <Array as="points">
              <mxPoint x="275" y="210" />
            </Array>
          </mxGeometry>
        </mxCell>
        <mxCell id="_FG8ZskOo05IpsNUSyXY-25" value="&lt;font style=&quot;font-size: 10px;&quot;&gt;Data é maior ou&lt;br&gt;igual à data atual?&lt;/font&gt;" style="rhombus;whiteSpace=wrap;html=1;fontFamily=Courier New;spacingTop=11;fillColor=#fff2cc;strokeColor=#d6b656;" vertex="1" parent="WIyWlLk6GJQsqaUBKTNV-1">
          <mxGeometry x="413" y="156.25" width="112.5" height="112.5" as="geometry" />
        </mxCell>
        <mxCell id="_FG8ZskOo05IpsNUSyXY-27" value="Data Inválida" style="shape=display;whiteSpace=wrap;html=1;fontFamily=Courier New;fillColor=#f8cecc;strokeColor=#b85450;" vertex="1" parent="WIyWlLk6GJQsqaUBKTNV-1">
          <mxGeometry x="404.25" y="330" width="130" height="65" as="geometry" />
        </mxCell>
        <mxCell id="_FG8ZskOo05IpsNUSyXY-28" value="Cadastrar participante" style="shape=display;whiteSpace=wrap;html=1;fontFamily=Courier New;fillColor=#d5e8d4;strokeColor=#82b366;" vertex="1" parent="WIyWlLk6GJQsqaUBKTNV-1">
          <mxGeometry x="721.25" y="180" width="130" height="65" as="geometry" />
        </mxCell>
        <mxCell id="_FG8ZskOo05IpsNUSyXY-29" value="" style="shape=flexArrow;endArrow=classic;html=1;rounded=0;fontFamily=Courier New;width=10;endSize=7.33;exitX=1;exitY=0.5;exitDx=0;exitDy=0;fillColor=#dae8fc;strokeColor=#6c8ebf;entryX=0;entryY=0.5;entryDx=0;entryDy=0;entryPerimeter=0;" edge="1" parent="WIyWlLk6GJQsqaUBKTNV-1" source="_FG8ZskOo05IpsNUSyXY-25" target="_FG8ZskOo05IpsNUSyXY-28">
          <mxGeometry width="50" height="50" relative="1" as="geometry">
            <mxPoint x="528.75" y="79.5" as="sourcePoint" />
            <mxPoint x="588.75" y="80" as="targetPoint" />
          </mxGeometry>
        </mxCell>
        <mxCell id="_FG8ZskOo05IpsNUSyXY-95" value="Participante" style="shape=manualInput;whiteSpace=wrap;html=1;fontFamily=Courier New;spacingTop=13;fillColor=#dae8fc;strokeColor=#6c8ebf;" vertex="1" parent="WIyWlLk6GJQsqaUBKTNV-1">
          <mxGeometry x="726.25" y="315" width="120" height="80" as="geometry" />
        </mxCell>
        <mxCell id="_FG8ZskOo05IpsNUSyXY-96" value="" style="shape=flexArrow;endArrow=classic;html=1;rounded=0;fontFamily=Courier New;width=10;endSize=7.33;fillColor=#dae8fc;strokeColor=#6c8ebf;exitX=0;exitY=0;exitDx=65;exitDy=65;exitPerimeter=0;entryX=0.5;entryY=0;entryDx=0;entryDy=0;" edge="1" parent="WIyWlLk6GJQsqaUBKTNV-1" source="_FG8ZskOo05IpsNUSyXY-28" target="_FG8ZskOo05IpsNUSyXY-95">
          <mxGeometry width="50" height="50" relative="1" as="geometry">
            <mxPoint x="670" y="112" as="sourcePoint" />
            <mxPoint x="670" y="190" as="targetPoint" />
          </mxGeometry>
        </mxCell>
        <mxCell id="_FG8ZskOo05IpsNUSyXY-100" value="" style="shape=flexArrow;endArrow=classic;html=1;rounded=0;fontFamily=Courier New;width=10;endSize=7.33;fillColor=#dae8fc;strokeColor=#6c8ebf;entryX=0.5;entryY=0;entryDx=0;entryDy=0;exitX=0.5;exitY=1;exitDx=0;exitDy=0;" edge="1" parent="WIyWlLk6GJQsqaUBKTNV-1" source="_FG8ZskOo05IpsNUSyXY-95" target="_FG8ZskOo05IpsNUSyXY-101">
          <mxGeometry width="50" height="50" relative="1" as="geometry">
            <mxPoint x="665" y="280" as="sourcePoint" />
            <mxPoint x="665" y="320" as="targetPoint" />
          </mxGeometry>
        </mxCell>
        <mxCell id="_FG8ZskOo05IpsNUSyXY-101" value="quantidade = ++Participante" style="rounded=0;whiteSpace=wrap;html=1;fontFamily=Courier New;fillColor=#fff2cc;strokeColor=#d6b656;" vertex="1" parent="WIyWlLk6GJQsqaUBKTNV-1">
          <mxGeometry x="721.25" y="460" width="130" height="60" as="geometry" />
        </mxCell>
        <mxCell id="_FG8ZskOo05IpsNUSyXY-103" value="Quantidade de participantes é menor ou igual a 100?" style="rhombus;whiteSpace=wrap;html=1;fontFamily=Courier New;fontSize=11;fillColor=#fff2cc;strokeColor=#d6b656;" vertex="1" parent="WIyWlLk6GJQsqaUBKTNV-1">
          <mxGeometry x="730" y="586.25" width="112.5" height="112.5" as="geometry" />
        </mxCell>
        <mxCell id="_FG8ZskOo05IpsNUSyXY-104" value="" style="shape=flexArrow;endArrow=classic;html=1;rounded=0;fontFamily=Courier New;width=10;endSize=7.33;exitX=0.5;exitY=1;exitDx=0;exitDy=0;fillColor=#dae8fc;strokeColor=#6c8ebf;entryX=0.5;entryY=0;entryDx=0;entryDy=0;" edge="1" parent="WIyWlLk6GJQsqaUBKTNV-1" source="_FG8ZskOo05IpsNUSyXY-101" target="_FG8ZskOo05IpsNUSyXY-103">
          <mxGeometry width="50" height="50" relative="1" as="geometry">
            <mxPoint x="660.75" y="450.25" as="sourcePoint" />
            <mxPoint x="730" y="440" as="targetPoint" />
          </mxGeometry>
        </mxCell>
        <mxCell id="_FG8ZskOo05IpsNUSyXY-106" value="" style="shape=flexArrow;endArrow=classic;html=1;rounded=0;fontFamily=Courier New;width=10;endSize=7.33;fillColor=#dae8fc;strokeColor=#6c8ebf;entryX=0;entryY=0.5;entryDx=0;entryDy=0;exitX=1;exitY=0.5;exitDx=0;exitDy=0;entryPerimeter=0;" edge="1" parent="WIyWlLk6GJQsqaUBKTNV-1" source="_FG8ZskOo05IpsNUSyXY-103" target="_FG8ZskOo05IpsNUSyXY-108">
          <mxGeometry width="50" height="50" relative="1" as="geometry">
            <mxPoint x="760" y="600" as="sourcePoint" />
            <mxPoint x="665" y="630" as="targetPoint" />
          </mxGeometry>
        </mxCell>
        <mxCell id="_FG8ZskOo05IpsNUSyXY-108" value="Participante cadastrado com sucesso!" style="shape=display;whiteSpace=wrap;html=1;fontFamily=Courier New;fillColor=#d5e8d4;strokeColor=#82b366;" vertex="1" parent="WIyWlLk6GJQsqaUBKTNV-1">
          <mxGeometry x="910" y="605" width="171.25" height="75" as="geometry" />
        </mxCell>
        <mxCell id="_FG8ZskOo05IpsNUSyXY-115" value="Cadastrar mais&lt;br&gt;participantes?" style="rhombus;whiteSpace=wrap;html=1;fontFamily=Courier New;fontSize=11;fillColor=#fff2cc;strokeColor=#d6b656;" vertex="1" parent="WIyWlLk6GJQsqaUBKTNV-1">
          <mxGeometry x="1160" y="586.25" width="112.5" height="112.5" as="geometry" />
        </mxCell>
        <mxCell id="_FG8ZskOo05IpsNUSyXY-117" value="" style="shape=flexArrow;endArrow=classic;html=1;rounded=0;fontFamily=Courier New;width=10;endSize=7.33;exitX=1;exitY=0.5;exitDx=0;exitDy=0;fillColor=#dae8fc;strokeColor=#6c8ebf;entryX=0;entryY=0.5;entryDx=0;entryDy=0;exitPerimeter=0;" edge="1" parent="WIyWlLk6GJQsqaUBKTNV-1" source="_FG8ZskOo05IpsNUSyXY-108" target="_FG8ZskOo05IpsNUSyXY-115">
          <mxGeometry width="50" height="50" relative="1" as="geometry">
            <mxPoint x="721.25" y="835.75" as="sourcePoint" />
            <mxPoint x="790" y="440" as="targetPoint" />
            <Array as="points" />
          </mxGeometry>
        </mxCell>
        <mxCell id="_FG8ZskOo05IpsNUSyXY-118" value="Não" style="text;html=1;align=center;verticalAlign=middle;resizable=0;points=[];autosize=1;strokeColor=none;fillColor=none;fontSize=11;fontFamily=Courier New;" vertex="1" parent="WIyWlLk6GJQsqaUBKTNV-1">
          <mxGeometry x="100" y="600" width="40" height="30" as="geometry" />
        </mxCell>
        <mxCell id="_FG8ZskOo05IpsNUSyXY-119" value="Não" style="text;html=1;align=center;verticalAlign=middle;resizable=0;points=[];autosize=1;strokeColor=none;fillColor=none;fontSize=11;fontFamily=Courier New;" vertex="1" parent="WIyWlLk6GJQsqaUBKTNV-1">
          <mxGeometry x="413" y="268.75" width="40" height="30" as="geometry" />
        </mxCell>
        <mxCell id="_FG8ZskOo05IpsNUSyXY-120" value="Sim" style="text;html=1;align=center;verticalAlign=middle;resizable=0;points=[];autosize=1;strokeColor=none;fillColor=none;fontSize=11;fontFamily=Courier New;" vertex="1" parent="WIyWlLk6GJQsqaUBKTNV-1">
          <mxGeometry x="850" y="595" width="40" height="30" as="geometry" />
        </mxCell>
        <mxCell id="_FG8ZskOo05IpsNUSyXY-121" value="Não é possível cadastrar o participante, limite excedido!" style="shape=display;whiteSpace=wrap;html=1;fontFamily=Courier New;fillColor=#f8cecc;strokeColor=#b85450;" vertex="1" parent="WIyWlLk6GJQsqaUBKTNV-1">
          <mxGeometry x="700.62" y="780" width="171.25" height="75" as="geometry" />
        </mxCell>
        <mxCell id="_FG8ZskOo05IpsNUSyXY-122" value="" style="shape=flexArrow;endArrow=classic;html=1;rounded=0;fontFamily=Courier New;width=10;endSize=7.33;exitX=0.5;exitY=1;exitDx=0;exitDy=0;fillColor=#dae8fc;strokeColor=#6c8ebf;entryX=0;entryY=0;entryDx=88.28125;entryDy=0;entryPerimeter=0;" edge="1" parent="WIyWlLk6GJQsqaUBKTNV-1" source="_FG8ZskOo05IpsNUSyXY-103" target="_FG8ZskOo05IpsNUSyXY-121">
          <mxGeometry width="50" height="50" relative="1" as="geometry">
            <mxPoint x="674.5" y="580" as="sourcePoint" />
            <mxPoint x="520" y="615" as="targetPoint" />
          </mxGeometry>
        </mxCell>
        <mxCell id="_FG8ZskOo05IpsNUSyXY-123" value="&lt;p&gt;&lt;font face=&quot;Courier New&quot;&gt;Fim&lt;/font&gt;&lt;/p&gt;" style="ellipse;whiteSpace=wrap;html=1;fillColor=#f5f5f5;fontColor=#333333;strokeColor=#666666;" vertex="1" parent="WIyWlLk6GJQsqaUBKTNV-1">
          <mxGeometry x="405.5" y="957.5" width="120" height="80" as="geometry" />
        </mxCell>
        <mxCell id="_FG8ZskOo05IpsNUSyXY-124" value="Sim" style="text;html=1;align=center;verticalAlign=middle;resizable=0;points=[];autosize=1;strokeColor=none;fillColor=none;fontSize=11;fontFamily=Courier New;" vertex="1" parent="WIyWlLk6GJQsqaUBKTNV-1">
          <mxGeometry x="140" y="501.25" width="40" height="30" as="geometry" />
        </mxCell>
        <mxCell id="_FG8ZskOo05IpsNUSyXY-125" value="" style="shape=flexArrow;endArrow=classic;html=1;rounded=0;fontFamily=Courier New;width=10;endSize=7.33;exitX=1;exitY=0.5;exitDx=0;exitDy=0;fillColor=#dae8fc;strokeColor=#6c8ebf;entryX=0;entryY=0.5;entryDx=0;entryDy=0;entryPerimeter=0;" edge="1" parent="WIyWlLk6GJQsqaUBKTNV-1" source="_FG8ZskOo05IpsNUSyXY-11" target="_FG8ZskOo05IpsNUSyXY-17">
          <mxGeometry width="50" height="50" relative="1" as="geometry">
            <mxPoint x="200" y="544.9999999999998" as="sourcePoint" />
            <mxPoint x="210" y="540" as="targetPoint" />
          </mxGeometry>
        </mxCell>
        <mxCell id="_FG8ZskOo05IpsNUSyXY-129" value="" style="shape=flexArrow;endArrow=classic;html=1;rounded=0;fontFamily=Courier New;width=10;endSize=7.33;exitX=0.5;exitY=1;exitDx=0;exitDy=0;fillColor=#dae8fc;strokeColor=#6c8ebf;entryX=0;entryY=0;entryDx=65;entryDy=0;entryPerimeter=0;" edge="1" parent="WIyWlLk6GJQsqaUBKTNV-1" source="_FG8ZskOo05IpsNUSyXY-25" target="_FG8ZskOo05IpsNUSyXY-27">
          <mxGeometry width="50" height="50" relative="1" as="geometry">
            <mxPoint x="498.25" y="279.40999999999997" as="sourcePoint" />
            <mxPoint x="570" y="279.40999999999997" as="targetPoint" />
          </mxGeometry>
        </mxCell>
        <mxCell id="_FG8ZskOo05IpsNUSyXY-130" value="" style="shape=flexArrow;endArrow=classic;html=1;rounded=0;fontFamily=Courier New;width=10;endSize=7.33;exitX=0;exitY=0;exitDx=65;exitDy=65;fillColor=#dae8fc;strokeColor=#6c8ebf;exitPerimeter=0;entryX=0.5;entryY=0;entryDx=0;entryDy=0;" edge="1" parent="WIyWlLk6GJQsqaUBKTNV-1" source="_FG8ZskOo05IpsNUSyXY-27" target="_FG8ZskOo05IpsNUSyXY-123">
          <mxGeometry width="50" height="50" relative="1" as="geometry">
            <mxPoint x="361.25" y="232.5" as="sourcePoint" />
            <mxPoint x="370" y="720" as="targetPoint" />
          </mxGeometry>
        </mxCell>
        <mxCell id="_FG8ZskOo05IpsNUSyXY-131" value="Sim" style="text;html=1;align=center;verticalAlign=middle;resizable=0;points=[];autosize=1;strokeColor=none;fillColor=none;fontSize=10;fontFamily=Courier New;" vertex="1" parent="WIyWlLk6GJQsqaUBKTNV-1">
          <mxGeometry x="520" y="175" width="40" height="30" as="geometry" />
        </mxCell>
        <mxCell id="_FG8ZskOo05IpsNUSyXY-137" value="Não" style="text;html=1;align=center;verticalAlign=middle;resizable=0;points=[];autosize=1;strokeColor=none;fillColor=none;fontSize=10;fontFamily=Courier New;" vertex="1" parent="WIyWlLk6GJQsqaUBKTNV-1">
          <mxGeometry x="802.5" y="698.75" width="40" height="30" as="geometry" />
        </mxCell>
        <mxCell id="_FG8ZskOo05IpsNUSyXY-138" value="Sim" style="text;html=1;align=center;verticalAlign=middle;resizable=0;points=[];autosize=1;strokeColor=none;fillColor=none;fontSize=10;fontFamily=Courier New;" vertex="1" parent="WIyWlLk6GJQsqaUBKTNV-1">
          <mxGeometry x="1160" y="575" width="40" height="30" as="geometry" />
        </mxCell>
        <mxCell id="_FG8ZskOo05IpsNUSyXY-139" value="Não" style="text;html=1;align=center;verticalAlign=middle;resizable=0;points=[];autosize=1;strokeColor=none;fillColor=none;fontSize=10;fontFamily=Courier New;" vertex="1" parent="WIyWlLk6GJQsqaUBKTNV-1">
          <mxGeometry x="1221" y="697.5" width="40" height="30" as="geometry" />
        </mxCell>
        <mxCell id="_FG8ZskOo05IpsNUSyXY-140" value="" style="shape=flexArrow;endArrow=classic;html=1;rounded=0;fontFamily=Courier New;width=10;endSize=7.33;exitX=0.5;exitY=1;exitDx=0;exitDy=0;fillColor=#dae8fc;strokeColor=#6c8ebf;entryX=1;entryY=0.5;entryDx=0;entryDy=0;entryPerimeter=0;" edge="1" parent="WIyWlLk6GJQsqaUBKTNV-1" source="_FG8ZskOo05IpsNUSyXY-115" target="_FG8ZskOo05IpsNUSyXY-141">
          <mxGeometry width="50" height="50" relative="1" as="geometry">
            <mxPoint x="1220" y="750" as="sourcePoint" />
            <mxPoint x="1030" y="810" as="targetPoint" />
            <Array as="points">
              <mxPoint x="1220" y="998" />
            </Array>
          </mxGeometry>
        </mxCell>
        <mxCell id="_FG8ZskOo05IpsNUSyXY-141" value="Evento Criado com Sucesso!" style="shape=display;whiteSpace=wrap;html=1;fontFamily=Courier New;fillColor=#d5e8d4;strokeColor=#82b366;" vertex="1" parent="WIyWlLk6GJQsqaUBKTNV-1">
          <mxGeometry x="700.6200000000001" y="960" width="171.25" height="75" as="geometry" />
        </mxCell>
        <mxCell id="_FG8ZskOo05IpsNUSyXY-142" value="" style="shape=flexArrow;endArrow=classic;html=1;rounded=0;fontFamily=Courier New;width=10;endSize=7.33;fillColor=#dae8fc;strokeColor=#6c8ebf;entryX=1;entryY=0.5;entryDx=0;entryDy=0;exitX=0;exitY=0.5;exitDx=0;exitDy=0;exitPerimeter=0;" edge="1" parent="WIyWlLk6GJQsqaUBKTNV-1" source="_FG8ZskOo05IpsNUSyXY-141" target="_FG8ZskOo05IpsNUSyXY-123">
          <mxGeometry width="50" height="50" relative="1" as="geometry">
            <mxPoint x="796.25" y="405" as="sourcePoint" />
            <mxPoint x="796.25" y="470" as="targetPoint" />
          </mxGeometry>
        </mxCell>
        <mxCell id="_FG8ZskOo05IpsNUSyXY-143" value="" style="shape=flexArrow;endArrow=classic;html=1;rounded=0;fontFamily=Courier New;width=10;endSize=7.33;exitX=0;exitY=0;exitDx=88.28125;exitDy=75;fillColor=#dae8fc;strokeColor=#6c8ebf;entryX=0;entryY=0;entryDx=88.28125;entryDy=0;entryPerimeter=0;exitPerimeter=0;" edge="1" parent="WIyWlLk6GJQsqaUBKTNV-1" source="_FG8ZskOo05IpsNUSyXY-121" target="_FG8ZskOo05IpsNUSyXY-141">
          <mxGeometry width="50" height="50" relative="1" as="geometry">
            <mxPoint x="796.25" y="708.75" as="sourcePoint" />
            <mxPoint x="798.9012499999999" y="775" as="targetPoint" />
          </mxGeometry>
        </mxCell>
        <mxCell id="_FG8ZskOo05IpsNUSyXY-144" value="" style="shape=flexArrow;endArrow=classic;html=1;rounded=0;fontFamily=Courier New;width=10;endSize=7.33;exitX=0.5;exitY=0;exitDx=0;exitDy=0;fillColor=#dae8fc;strokeColor=#6c8ebf;entryX=1;entryY=0.5;entryDx=0;entryDy=0;entryPerimeter=0;" edge="1" parent="WIyWlLk6GJQsqaUBKTNV-1" source="_FG8ZskOo05IpsNUSyXY-115" target="_FG8ZskOo05IpsNUSyXY-28">
          <mxGeometry width="50" height="50" relative="1" as="geometry">
            <mxPoint x="1091.25" y="652.5" as="sourcePoint" />
            <mxPoint x="1190" y="440" as="targetPoint" />
            <Array as="points">
              <mxPoint x="1216" y="213" />
            </Array>
          </mxGeometry>
        </mxCell>
      </root>
    </mxGraphModel>
  </diagram>
</mxfile>
